<svg width="445" height="89" viewBox="0 0 445 89" fill="none" xmlns="http://www.w3.org/2000/svg">
<path d="M41.5078 14.9922C41.1172 14.8359 40.6484 14.5625 40.1016 14.1719C39.5547 13.7812 38.7734 13.4297 37.7578 13.1172C36.7422 12.7266 35.4531 12.4141 33.8906 12.1797C32.3281 11.9453 30.3359 11.9062 27.9141 12.0625V0.226562C31.3516 0.304687 34.8281 0.695312 38.3438 1.39844C41.9375 2.02344 44.8281 3.03906 47.0156 4.44531C46.5469 5.46094 46 6.59375 45.375 7.84375C44.75 9.01562 44.1641 10.1484 43.6172 11.2422C43.0703 12.2578 42.6016 13.1172 42.2109 13.8203C41.8203 14.5234 41.5859 14.9141 41.5078 14.9922ZM1.07812 24.3672C1.07812 20.9297 1.66406 17.8438 2.83594 15.1094C4.00781 12.375 5.57031 9.99219 7.52344 7.96094C9.55469 5.85156 11.8984 4.21094 14.5547 3.03906C17.2891 1.78906 20.1406 0.96875 23.1094 0.578125V12.8828C20.6094 13.7422 18.5391 15.2656 16.8984 17.4531C15.2578 19.5625 14.4375 21.7109 14.4375 23.8984C14.4375 26.9453 15.2578 29.4062 16.8984 31.2812C18.5391 33.1562 20.6094 34.7969 23.1094 36.2031V49.5625C20.5312 48.3125 17.9531 46.9844 15.375 45.5781C12.7969 44.0938 10.4531 42.375 8.34375 40.4219C6.23438 38.4688 4.47656 36.2031 3.07031 33.625C1.74219 31.0469 1.07812 27.9609 1.07812 24.3672ZM2.95312 72.1797C4.04688 72.8047 5.41406 73.4297 7.05469 74.0547C8.77344 74.6016 10.5312 75.1484 12.3281 75.6953C14.125 76.1641 15.9219 76.5547 17.7188 76.8672C19.5156 77.1797 21.1953 77.3359 22.7578 77.3359H23.1094V88.4688H22.875C21 88.4688 19.0469 88.3516 17.0156 88.1172C15.0625 87.9609 13.0703 87.6484 11.0391 87.1797C9.00781 86.7109 7.05469 86.0859 5.17969 85.3047C3.38281 84.4453 1.82031 83.4297 0.492188 82.2578L2.95312 72.1797ZM27.9141 38.5469C30.4922 39.7188 33.1094 40.9688 35.7656 42.2969C38.5 43.625 40.9609 45.2656 43.1484 47.2188C45.3359 49.0938 47.1328 51.3984 48.5391 54.1328C49.9453 56.8672 50.6484 60.2656 50.6484 64.3281C50.6484 67.1406 50.1016 69.875 49.0078 72.5312C47.9922 75.1875 46.5078 77.6094 44.5547 79.7969C42.6797 81.9062 40.3359 83.7031 37.5234 85.1875C34.7109 86.6719 31.5078 87.6484 27.9141 88.1172V76.8672C34.3203 75.3047 37.5234 71.0469 37.5234 64.0938C37.5234 61.3594 36.625 59.0938 34.8281 57.2969C33.0312 55.5 30.7266 53.8203 27.9141 52.2578V38.5469ZM135.473 1.63281V88H121.411V49.0938H88.8328V39.4844H121.411V1.63281H135.473ZM69.7312 1.63281H84.0281V88H69.7312V1.63281ZM161.822 1.63281H176.119V88H161.822V1.63281ZM212.212 49.0938H180.923V39.4844H212.212V49.0938ZM180.923 77.3359H215.845V88H180.923V77.3359ZM215.845 1.63281V12.2969H180.923V1.63281H215.845ZM253.678 1.63281V77.3359H293.405V88H239.381V1.63281H253.678ZM326.316 1.63281V77.3359H366.042V88H312.019V1.63281H326.316ZM428.367 1.63281H444.422L418.758 52.8438V88H404.461V59.1719L428.367 1.63281ZM396.141 1.63281L409.148 35.2656L402.82 50.6172L380.086 1.63281H396.141Z" fill="#A18A68"/>
</svg>
